<svg xmlns="http://www.w3.org/2000/svg" width="410" height="404" viewBox="0 0 410 404" fill="none">
  <!-- Fundo com gradiente azul como base do seu tema -->
  <defs>
    <linearGradient id="grad1" x1="0" y1="0" x2="1" y2="1">
      <stop offset="0%" stop-color="#1f2b78"/>
      <stop offset="100%" stop-color="#2b367f"/>
    </linearGradient>
    <linearGradient id="grad2" x1="0" y1="0" x2="1" y2="1">
      <stop offset="0%" stop-color="#ffd580"/>
      <stop offset="100%" stop-color="#ffb300"/>
    </linearGradient>
    <filter id="shadow" x="-20%" y="-20%" width="150%" height="150%">
      <feDropShadow dx="0" dy="8" stdDeviation="8" flood-color="#000" flood-opacity="0.15"/>
    </filter>
  </defs>

  <!-- Base triangular no estilo Vite -->
  <path
    d="M205 400L20 50C10 30 30 10 50 20L205 100L360 20C380 10 400 30 390 50L205 400Z"
    fill="url(#grad1)"
    filter="url(#shadow)"
  />

  <!-- Símbolo de projeto (gráfico de progresso) -->
  <g transform="translate(135, 140)">
    <rect x="0" y="70" width="30" height="70" rx="6" fill="url(#grad2)" />
    <rect x="45" y="40" width="30" height="100" rx="6" fill="url(#grad2)" />
    <rect x="90" y="10" width="30" height="130" rx="6" fill="url(#grad2)" />
    <rect x="135" y="55" width="30" height="85" rx="6" fill="url(#grad2)" />
    <polyline points="0,80 45,50 90,25 135,65" fill="none" stroke="#fff" stroke-width="5" stroke-linecap="round" stroke-linejoin="round" />
  </g>

  <!-- Círculo de check para indicar sucesso do projeto -->
  <circle cx="310" cy="100" r="38" fill="url(#grad2)" filter="url(#shadow)" />
  <path d="M295 100l10 10 18-22" stroke="#1f2b78" stroke-width="6" stroke-linecap="round" stroke-linejoin="round"/>

  <!-- brilho decorativo -->
  <circle cx="150" cy="70" r="8" fill="#fff" opacity="0.9"/>
  <circle cx="250" cy="40" r="5" fill="#fff" opacity="0.8"/>
</svg>
